<mxfile host="app.diagrams.net" modified="2024-06-20T11:57:38.779Z" agent="Mozilla/5.0 (Windows NT 10.0; Win64; x64) AppleWebKit/537.36 (KHTML, like Gecko) Chrome/126.0.0.0 Safari/537.36 Edg/126.0.0.0" etag="m18fNl3pPqv7ZMJKQCwB" version="24.5.4" type="github">
  <diagram name="第 1 页" id="KrYzzmFjBLNKbYGRP-VH">
    <mxGraphModel dx="1554" dy="823" grid="1" gridSize="10" guides="1" tooltips="1" connect="1" arrows="1" fold="1" page="1" pageScale="1" pageWidth="827" pageHeight="1169" math="0" shadow="0">
      <root>
        <mxCell id="0" />
        <mxCell id="1" parent="0" />
        <mxCell id="PUrAb0Nyy_ItLQF4h_nL-1" value="A" style="ellipse;whiteSpace=wrap;html=1;aspect=fixed;" vertex="1" parent="1">
          <mxGeometry x="370" y="380" width="30" height="30" as="geometry" />
        </mxCell>
        <mxCell id="PUrAb0Nyy_ItLQF4h_nL-2" value="B" style="ellipse;whiteSpace=wrap;html=1;aspect=fixed;strokeColor=default;align=center;verticalAlign=middle;fontFamily=Helvetica;fontSize=12;fontColor=default;fillColor=default;" vertex="1" parent="1">
          <mxGeometry x="320" y="410" width="30" height="30" as="geometry" />
        </mxCell>
        <mxCell id="PUrAb0Nyy_ItLQF4h_nL-3" value="C" style="ellipse;whiteSpace=wrap;html=1;aspect=fixed;" vertex="1" parent="1">
          <mxGeometry x="414" y="410" width="30" height="30" as="geometry" />
        </mxCell>
        <mxCell id="PUrAb0Nyy_ItLQF4h_nL-4" value="D" style="ellipse;whiteSpace=wrap;html=1;aspect=fixed;" vertex="1" parent="1">
          <mxGeometry x="384" y="460" width="30" height="30" as="geometry" />
        </mxCell>
        <mxCell id="PUrAb0Nyy_ItLQF4h_nL-12" value="" style="endArrow=none;html=1;rounded=0;" edge="1" parent="1">
          <mxGeometry width="50" height="50" relative="1" as="geometry">
            <mxPoint x="352" y="418" as="sourcePoint" />
            <mxPoint x="373" y="403" as="targetPoint" />
          </mxGeometry>
        </mxCell>
        <mxCell id="PUrAb0Nyy_ItLQF4h_nL-13" value="" style="endArrow=none;html=1;rounded=0;entryX=1;entryY=0.5;entryDx=0;entryDy=0;" edge="1" parent="1" source="PUrAb0Nyy_ItLQF4h_nL-3">
          <mxGeometry width="50" height="50" relative="1" as="geometry">
            <mxPoint x="420" y="431" as="sourcePoint" />
            <mxPoint x="400" y="401" as="targetPoint" />
          </mxGeometry>
        </mxCell>
        <mxCell id="PUrAb0Nyy_ItLQF4h_nL-14" value="" style="endArrow=none;html=1;rounded=0;entryX=0;entryY=1;entryDx=0;entryDy=0;" edge="1" parent="1" source="PUrAb0Nyy_ItLQF4h_nL-4" target="PUrAb0Nyy_ItLQF4h_nL-3">
          <mxGeometry width="50" height="50" relative="1" as="geometry">
            <mxPoint x="390" y="450" as="sourcePoint" />
            <mxPoint x="440" y="400" as="targetPoint" />
          </mxGeometry>
        </mxCell>
      </root>
    </mxGraphModel>
  </diagram>
</mxfile>
